<svg width="1600" height="170" viewBox="0 0 1600 170" fill="none" xmlns="http://www.w3.org/2000/svg">
<path fill-rule="evenodd" clip-rule="evenodd" d="M0.00012207 170H1600V86.4171C1595.35 54.4496 1551.99 31.3904 1513.17 34.0126C1488.36 35.6322 1467.49 47.5477 1456.05 64.3605C1438.56 33.1642 1399.09 12.688 1355.42 15.6187C1320.41 17.971 1290.98 34.8224 1274.81 58.4606C1268.68 24.7964 1232.3 0.38692 1190.89 3.12479C1164.33 4.93718 1141.91 17.5854 1129.39 35.4394C1119.5 32.5858 1108.68 31.3518 1097.55 32.0845C1077.54 33.4341 1059.9 40.9151 1047.06 52.1751C1039.15 20.2847 1003.82 -2.46663 963.882 0.232678C939.142 1.89082 918.008 12.9965 905.095 28.961C887.877 21.133 867.868 17.3154 846.85 18.7036C806.521 21.4415 773.404 42.8432 758.746 71.9186C758.455 71.9379 758.164 71.9379 757.873 71.9379C757.583 71.9378 757.292 71.9378 757.001 71.9571C738.465 73.2297 721.946 79.7466 709.343 89.6569C697.399 62.8952 665.291 44.8484 629.46 47.2392C618.757 47.9718 608.752 50.4783 599.717 54.3345C583.857 20.1304 542.521 -2.77512 496.375 0.271236C469.114 2.08363 445.15 12.8037 428.32 28.614C411.219 10.9142 384.19 0.271237 354.952 2.23787C315.941 4.86006 285.19 29.0767 278.172 59.6174C268.438 55.1057 257.076 52.8306 245.171 53.6404C231.328 54.5659 219.035 59.4632 209.767 66.9055C196.078 47.9333 170.33 35.9792 142.06 37.8687C112.55 39.7968 88.6629 56.3011 79.5113 78.2427C68.4984 70.0676 53.6463 65.4788 37.7861 66.5199C24.0004 67.4249 6.00035 72.026 0.000261275 86.4313C0.000261275 86.4313 0.00017715 127.404 0.00012207 170Z" fill="#0B4C61"/>
</svg>
